<svg xmlns="http://www.w3.org/2000/svg" viewBox="0 0 2000 2000"><defs><style>.cls-1,.cls-3,.cls-4{fill:#fff;}.cls-2{fill:#0e2340;}.cls-3{font-size:237.39px;}.cls-3,.cls-4{font-family:OCRAStd, OCR A Std;}.cls-4{font-size:237.39px;}.cls-5{fill:none;}</style></defs><title>Artboard 1 copy 9</title><g id="Artboard_10" data-name="Artboard 10"><circle class="cls-1" cx="1000" cy="1000" r="1000"/><circle class="cls-2" cx="1000" cy="1000" r="951"/><text class="cls-3" transform="translate(525.84 1558.19) rotate(-132.96)">H</text><text class="cls-3" transform="matrix(-0.51, -0.86, 0.86, -0.51, 419.4, 1446.49)">I</text><text class="cls-3" transform="translate(338.63 1315.11) rotate(-108.78)">M</text><text class="cls-3" transform="matrix(-0.12, -0.99, 0.99, -0.12, 287.33, 1169.65)">P</text><text class="cls-3" transform="matrix(0.09, -1, 1, 0.09, 267.84, 1016.54)">U</text><text class="cls-3" transform="translate(280.39 862.8) rotate(-72.53)">N</text><text class="cls-3" transform="translate(325.02 715.19) rotate(-60.37)">A</text><text class="cls-3" transform="translate(399.76 580.24) rotate(-48.31)">N</text><text class="cls-3" transform="matrix(0.81, -0.59, 0.59, 0.81, 501.06, 463.86)"> </text><text class="cls-3" transform="matrix(0.91, -0.41, 0.41, 0.91, 624.37, 371.11)">M</text><text class="cls-3" transform="translate(764.31 306.31) rotate(-12.01)">A</text><text class="cls-3" transform="translate(915.18 273.26) rotate(-0.44)">H</text><text class="cls-3" transform="translate(1069.15 270.81) rotate(12.06)">A</text><text class="cls-3" transform="translate(1220.33 301.28) rotate(24.23)">S</text><text class="cls-3" transform="translate(1361.69 362.99) rotate(36.33)">I</text><text class="cls-3" transform="matrix(0.66, 0.75, -0.75, 0.66, 1487, 452.99)">S</text><text class="cls-3" transform="translate(1590.83 567.11) rotate(60.42)">W</text><text class="cls-3" transform="translate(1668.54 700.37) rotate(72.57)">A</text><text class="cls-3" transform="matrix(0.09, 1, -1, 0.09, 1716.4, 846.98)"> </text><text class="cls-3" transform="translate(1732.36 1000.47) rotate(96.67)">P</text><text class="cls-3" transform="matrix(-0.32, 0.95, -0.95, -0.32, 1716.25, 1153.88)">S</text><text class="cls-3" transform="matrix(-0.51, 0.86, -0.86, -0.51, 1668.17, 1300.43)">T</text><text class="cls-3" transform="matrix(-0.68, 0.73, -0.73, -0.68, 1590.29, 1433.61)">I</text><text class="cls-4" transform="translate(399.31 1692.41) rotate(35.64)">.</text><text class="cls-4" transform="translate(553.81 1800.95) rotate(23.8)"> </text><text class="cls-4" transform="translate(727.47 1875.48) rotate(11.88)">U</text><text class="cls-4" transform="translate(913.56 1913.25) rotate(-0.39)">P</text><text class="cls-4" transform="matrix(0.98, -0.2, 0.2, 0.98, 1101.07, 1911.17)">I</text><text class="cls-4" transform="translate(1285.79 1871.25) rotate(-23.54)"> </text><text class="cls-4" transform="translate(1458.11 1794.13) rotate(-35.38)">.</text><path class="cls-1" d="M1011.9,342.93V827.08h70.48V300q-34.76-4-70.48-4.67Z"/><path class="cls-1" d="M1223.34,461.85V568c152.89,79.19,258.39,237.14,262.79,420.15h96.26C1577.63,750.62,1430.76,548,1223.34,461.85Z"/><path class="cls-5" d="M1012,1275.75v108.83c203-6.2,366.42-169.62,372.62-372.62H1275.75C1269.65,1154.88,1154.88,1269.65,1012,1275.75Z"/><path class="cls-1" d="M1532.26,1012H1384.58c-6.2,203-169.62,366.42-372.62,372.62v147.68a173,173,0,0,1,159.68,151.45,700.79,700.79,0,0,0,190.41-78.93,172.93,172.93,0,0,1,242.73-242.73,700.79,700.79,0,0,0,78.93-190.41A173,173,0,0,1,1532.26,1012Z"/><path class="cls-1" d="M1012,1172.5v103.25c142.92-6.1,257.69-120.87,263.79-263.79H1172.5A172.92,172.92,0,0,1,1012,1172.5Z"/><path class="cls-1" d="M724.25,1012H295.33a710.48,710.48,0,0,0,6.66,86C584.29,1192.43,807.57,1415.71,902,1698a710.48,710.48,0,0,0,86,6.66V1275.75C845.12,1269.65,730.35,1154.88,724.25,1012Z"/><path class="cls-5" d="M988.1,513.87V417.61C675.83,423.87,423.87,675.83,417.61,988.1h96.26C520.1,729,729,520.1,988.1,513.87Z"/><path class="cls-5" d="M615.42,988.1H724.25c6.07-143,120.88-257.78,263.85-263.85V615.42C785.05,621.59,621.59,785.05,615.42,988.1Z"/><path class="cls-1" d="M988.1,417.61V295.34c-379.79,6.29-686.47,313-692.76,692.76H417.61C423.87,675.83,675.83,423.87,988.1,417.61Z"/><path class="cls-1" d="M988.1,615.42V513.87C729,520.1,520.1,729,513.87,988.1H615.42C621.59,785.05,785.05,621.59,988.1,615.42Z"/><path class="cls-1" d="M988.1,827.49V724.25c-143,6.07-257.78,120.88-263.85,263.85H827.49A172.94,172.94,0,0,1,988.1,827.49Z"/><circle class="cls-1" cx="1000" cy="1000" r="72.12"/></g></svg>